#define elephant2_width 20
#define elephant2_height 20
static char elephant2_bits[] = {
0x00,0x00,0xf0,0x00,0x00,0xf0,0x00,0x00,0xf0,0x00,
0x0c,0xf0,0x00,0xfe,0xf0,0xc0,0xff,0xf1,0xe0,0xff,
0xf1,0xf0,0xff,0xf1,0xf8,0xff,0xf3,0xf8,0xff,0xf3,
0xf8,0xdf,0xf3,0xf8,0xdf,0xf3,0xf8,0x9f,0xf6,0xf4,
0x8e,0xfd,0xf4,0x0f,0xf0,0xf6,0x0d,0xf8,0xfd,0x1f,
0xfc,0xff,0xff,0xf1,0xe0,0x03,0xf1,0x00,0x00,0xf0};



