#define chevre_width 20
#define chevre_height 20
static char chevre_bits[] = {
0x00,0x00,0xf0,0x00,0x00,0xf0,0x00,0xc0,0xf1,0x00,
0x40,0xf3,0x00,0x00,0xf3,0x00,0x00,0xf7,0x00,0x83,
0xf7,0xc0,0xff,0xff,0xf8,0xff,0xf3,0xc0,0xff,0xf3,
0xc0,0xff,0xf1,0xe0,0xff,0xf0,0xa0,0xe0,0xf0,0x40,
0x81,0xf1,0x40,0x00,0xf0,0x00,0x00,0xf0,0x00,0x00,
0xf0,0x00,0x00,0xf0,0x00,0x00,0xf0,0x00,0x00,0xf0};


