#define cerf_width 20
#define cerf_height 20
static char cerf_bits[] = {
0x00,0x00,0xf0,0x00,0x00,0xf0,0x00,0x00,0xf0,0x00,
0x00,0xf0,0x40,0x04,0xf0,0x40,0x0c,0xf0,0xc0,0x05,
0xf0,0x80,0x0d,0xf0,0x00,0x07,0xf0,0x00,0x06,0xf0,
0xf8,0x03,0xf0,0xfe,0x03,0xf0,0xfc,0x03,0xf0,0xfc,
0x00,0xf0,0x84,0x00,0xf0,0x86,0x00,0xf0,0x45,0x00,
0xf0,0xa5,0x00,0xf0,0x09,0x00,0xf0,0x00,0x00,0xf0};


