#define cheval_width 20
#define cheval_height 20
static char cheval_bits[] = {
0x00,0x00,0xf0,0x00,0x00,0xf0,0x00,0x00,0xf0,0x0f,
0x00,0xf0,0x3f,0x00,0xf0,0xff,0x00,0xf0,0xfb,0xff,
0xf7,0xfb,0xff,0xff,0xfa,0xff,0xff,0xf8,0xff,0xff,
0xf8,0xff,0xff,0xf0,0xff,0xf7,0xd0,0xe1,0xfd,0x88,
0x61,0xff,0x8c,0x21,0xf0,0x18,0x21,0xf1,0x70,0x21,
0xf1,0x00,0x31,0xf2,0x00,0x19,0xf2,0xc0,0x00,0xf1};


