#define elephant_width 20
#define elephant_height 20
static char elephant_bits[] = {
0x00,0x00,0xfe,0xf8,0xcc,0xff,0xfe,0xff,0xff,0xff,
0xff,0xff,0xff,0xff,0xff,0xff,0xff,0xff,0xfe,0xff,
0xff,0xfe,0xff,0xff,0xfc,0x7f,0xf2,0xa0,0xff,0xf0,
0x80,0xff,0xf0,0x80,0xff,0xf7,0x80,0xff,0xf0,0x80,
0xff,0xf0,0x80,0x7f,0xf0,0x80,0x77,0xf0,0x80,0x77,
0xf0,0x80,0x63,0xf0,0x80,0x63,0xf0,0x80,0x63,0xf0};


