#define chouette_width 20
#define chouette_height 20
static char chouette_bits[] = {
0x98,0x00,0xf0,0xf0,0x01,0xf0,0xf8,0x01,0xf0,0xf8,
0x03,0xf0,0xf0,0x03,0xf0,0xf0,0x03,0xf0,0xf0,0x07,
0xf0,0xf0,0x07,0xf0,0xf0,0x0f,0xf0,0xf0,0x0f,0xf0,
0xe0,0x0f,0xf0,0xe0,0x0f,0xf0,0xe0,0x0f,0xf0,0xc0,
0x0f,0xf0,0xc0,0x1f,0xf0,0x88,0x1f,0xf0,0x90,0xbf,
0xf3,0xfc,0x4f,0xf6,0x00,0x0e,0xf0,0x00,0x0c,0xf0};


