#define chien_width 20
#define chien_height 20
static char chien_bits[] = {
0x00,0x00,0xf0,0x00,0x00,0xf0,0x00,0x00,0xf0,0x00,0x00,0xf0,
0x00,0x00,0xf0,0x04,0xc0,0xf3,0x04,0xe0,0xf7,0x04,0xf8,0xf0,
0xf4,0x7f,0xf0,0xf8,0x7f,0xf0,0xf8,0x3f,0xf0,0xf8,0x3f,0xf0,
0xf8,0x3f,0xf0,0x78,0x28,0xf0,0x28,0x28,0xf0,0x24,0x28,0xf0,
0x24,0x58,0xf0,0x48,0x00,0xf0,0x00,0x00,0xf0,0x00,0x00,0xf0};


