#define down_width 20
#define down_height 20
static unsigned char down_bits[] = {
   0x00, 0x00, 0x00, 0x00, 0x00, 0x00, 0x00, 0x00, 0x00, 0x00, 0x00, 0x00,
   0x00, 0x00, 0x00, 0x00, 0x1f, 0x00, 0xc0, 0x7f, 0x00, 0xe0, 0xff, 0x00,
   0xe0, 0xff, 0x00, 0xf0, 0xff, 0x01, 0xf0, 0xfb, 0x01, 0xf0, 0x9b, 0x01,
   0xf0, 0x99, 0x01, 0xf0, 0xf1, 0x01, 0xe0, 0xf1, 0x00, 0xe0, 0xf0, 0x00,
   0xc0, 0x60, 0x00, 0x80, 0x20, 0x00, 0x00, 0x00, 0x00, 0x00, 0x00, 0x00 };
