#define left_width 20
#define left_height 20
static unsigned char left_bits[] = {
   0x00, 0x00, 0x00, 0x00, 0x00, 0x00, 0x00, 0x00, 0x00, 0x00, 0x00, 0x00,
   0x80, 0x0f, 0x00, 0xe0, 0x3f, 0x00, 0xf0, 0x7c, 0x00, 0xf8, 0x7c, 0x00,
   0xe0, 0xff, 0x00, 0x00, 0xff, 0x00, 0x00, 0xf8, 0x00, 0x00, 0xfe, 0x00,
   0xc0, 0xff, 0x00, 0xf8, 0x7f, 0x00, 0xf0, 0x7f, 0x00, 0xe0, 0x3f, 0x00,
   0x80, 0x0f, 0x00, 0x00, 0x00, 0x00, 0x00, 0x00, 0x00, 0x00, 0x00, 0x00 };
