#define pacman1_width 20
#define pacman1_height 20
static unsigned char pacman1_bits[] = {
   0x00, 0x00, 0x00, 0x00, 0x00, 0x00, 0x00, 0x00, 0x00, 0x00, 0x1f, 0x00,
   0xc0, 0x7f, 0x00, 0xe0, 0xff, 0x00, 0xe0, 0xff, 0x00, 0xf0, 0xee, 0x01,
   0xf0, 0xff, 0x01, 0xf0, 0xff, 0x01, 0x70, 0xdf, 0x01, 0x70, 0xdf, 0x01,
   0xe0, 0xee, 0x00, 0xe0, 0xf1, 0x00, 0xc0, 0x7f, 0x00, 0x00, 0x1f, 0x00,
   0x00, 0x00, 0x00, 0x00, 0x00, 0x00, 0x00, 0x00, 0x00, 0x00, 0x00, 0x00 };
