#define right_width 20
#define right_height 20
static unsigned char right_bits[] = {
   0x00, 0x00, 0x00, 0x00, 0x00, 0x00, 0x00, 0x00, 0x00, 0x00, 0x3e, 0x00,
   0x80, 0xff, 0x00, 0xc0, 0xe7, 0x01, 0xc0, 0xe7, 0x03, 0xe0, 0xff, 0x00,
   0xe0, 0x1f, 0x00, 0xe0, 0x03, 0x00, 0xe0, 0x0f, 0x00, 0xe0, 0x7f, 0x00,
   0xc0, 0xff, 0x03, 0xc0, 0xff, 0x01, 0x80, 0xff, 0x00, 0x00, 0x3e, 0x00,
   0x00, 0x00, 0x00, 0x00, 0x00, 0x00, 0x00, 0x00, 0x00, 0x00, 0x00, 0x00 };
