#define up_width 20
#define up_height 20
static unsigned char up_bits[] = {
   0x00, 0x00, 0x00, 0x00, 0x00, 0x00, 0x40, 0x10, 0x00, 0x60, 0x30, 0x00,
   0xf0, 0x70, 0x00, 0xf0, 0x78, 0x00, 0xf8, 0xf8, 0x00, 0x98, 0xf9, 0x00,
   0x98, 0xfd, 0x00, 0xf8, 0xfd, 0x00, 0xf8, 0xff, 0x00, 0xf0, 0x7f, 0x00,
   0xf0, 0x7f, 0x00, 0xe0, 0x3f, 0x00, 0x80, 0x0f, 0x00, 0x00, 0x00, 0x00,
   0x00, 0x00, 0x00, 0x00, 0x00, 0x00, 0x00, 0x00, 0x00, 0x00, 0x00, 0x00 };
