#define cochon_width 20
#define cochon_height 20
static char cochon_bits[] = {
0x00,0x00,0xf0,0x00,0x00,0xf0,0x00,0x00,0xf0,0x00,
0x00,0xf0,0x00,0x00,0xf0,0x00,0x00,0xf0,0x00,0x00,
0xf0,0x00,0x00,0xf0,0xc0,0x7f,0xf0,0xf8,0xff,0xf3,
0xfc,0xff,0xff,0xfe,0xff,0xf7,0xff,0xff,0xf7,0xff,
0xff,0xf7,0xfc,0xff,0xf0,0xc0,0xbf,0xf3,0xc0,0x04,
0xf7,0x40,0x00,0xf2,0x40,0x00,0xf2,0x20,0x00,0xf2};


