#define cheval2_width 20
#define cheval2_height 20
static char cheval2_bits[] = {
0x00,0x00,0xf0,0x00,0x00,0xf0,0x00,0x00,0xf0,
0x00,0x00,0xf0,0x00,0x00,0xf0,0x00,0x00,0xf0,
0x00,0x00,0xf0,0x00,0x80,0xf1,0x00,0xc0,0xf3,
0x40,0xf0,0xf6,0xf0,0x7f,0xf0,0xec,0x7f,0xf0,
0x62,0x34,0xf0,0x38,0x60,0xf0,0x48,0x60,0xf0,
0x44,0x60,0xf0,0x00,0x40,0xf0,0x00,0x00,0xf0,
0x00,0x00,0xf0,0x00,0x00,0xf0};


