#define elephant3_width 20
#define elephant3_height 20
static char elephant3_bits[] = {
0x00,0x00,0xf0,0x00,0x00,0xf0,0x00,0x00,0xf0,0x00,
0x00,0xf0,0x00,0x00,0xf0,0x00,0x06,0xf0,0x00,0x1f,
0xf0,0xfc,0x3f,0xf0,0xfe,0x7f,0xf0,0xfe,0x7f,0xf0,
0xff,0xff,0xf0,0xfe,0xff,0xf9,0xfe,0x5f,0xf6,0xfe,
0xb9,0xf0,0x1f,0x78,0xf0,0x16,0x38,0xf0,0x00,0x00,
0xf0,0x00,0x00,0xf0,0x00,0x00,0xf0,0x00,0x00,0xf0};


