#define croco_width 20
#define croco_height 20
static char croco_bits[] = {
0x00,0x00,0xf0,0x00,0x00,0xf0,0x00,0x00,0xf0,0x00,
0x00,0xf0,0x00,0x00,0xf0,0xc0,0x03,0xf0,0xf8,0x1f,
0xf0,0xfe,0x00,0xf0,0x3f,0xe0,0xf1,0xff,0xf3,0xff,
0xff,0xff,0xff,0xff,0xff,0xff,0xff,0xff,0xf1,0xff,
0xff,0xf0,0xf6,0x3f,0xf0,0x06,0x1e,0xf0,0x0e,0x38,
0xf0,0x00,0x18,0xf0,0x00,0x00,0xf0,0x00,0x20,0xf0};


