#define chat2_width 20
#define chat2_height 20
static char chat2_bits[] = {
0x00,0x00,0xf0,0x00,0x00,0xf0,0x00,0x00,0xf0,
0x00,0x00,0xf0,0x00,0x00,0xf0,0x00,0x1e,0xf0,
0x00,0x7c,0xf0,0x00,0x7e,0xf1,0x00,0xfe,0xf1,
0x00,0xfc,0xf0,0x00,0xfe,0xf0,0x10,0x7f,0xf0,
0x90,0x7f,0xf0,0xa0,0x7f,0xf0,0xe0,0x7f,0xf0,
0xc0,0x7f,0xf0,0xc0,0x7f,0xf0,0x00,0xff,0xf0,
0x00,0x00,0xf0,0x00,0x00,0xf0};


