#define bison_width 20
#define bison_height 20
static char bison_bits[] = {
0x00,0x00,0xf0,0x00,0x00,0xf0,0x00,0x00,0xf0,0x00,0x00,
0xf0,0x00,0xfe,0xf0,0xe0,0xff,0xf3,0xf8,0xff,0xff,0xfc,
0xff,0xff,0xfe,0xff,0xff,0xfd,0xff,0xff,0xfd,0xff,0xff,
0xdc,0xff,0xff,0x16,0x3c,0xf3,0x1a,0x0c,0xf2,0x12,0x08,
0xf2,0x24,0x18,0xf0,0x00,0x00,0xf0,0x00,0x00,0xf0,0x00,
0x00,0xf0,0x00,0x00,0xf0};


