#define canard_width 20
#define canard_height 20
static char canard_bits[] = {
0x00,0x00,0xf0,0x00,0x00,0xf0,0x00,0x00,0xf0,0x00,
0x00,0xf0,0x00,0x00,0xf0,0x00,0x00,0xf0,0x00,0x00,
0xf3,0x00,0x80,0xf3,0x00,0x80,0xf4,0x00,0x9f,0xf9,
0xe0,0xff,0xf3,0xfe,0xff,0xf3,0xfe,0xff,0xf3,0xf0,
0xff,0xf3,0xe0,0xff,0xf1,0xc0,0xff,0xf0,0x80,0x3f,
0xf0,0x00,0x00,0xf0,0x00,0x00,0xf0,0x00,0x00,0xf0};



