#define cheval3_width 20
#define cheval3_height 20
static char cheval3_bits[] = {
0x00,0x00,0xf0,0x00,0x00,0xf0,0x00,0x00,0xf2,0x00,
0xc0,0xf3,0x00,0xe0,0xf6,0xe0,0xf1,0xf4,0xf0,0x7f,
0xf4,0xf8,0xff,0xf0,0xfc,0xff,0xf0,0xf6,0x7f,0xf0,
0xf0,0x78,0xf0,0x38,0x20,0xf0,0x28,0x30,0xf0,0x48,
0x28,0xf0,0x88,0x28,0xf0,0x84,0x20,0xf0,0x48,0x20,
0xf0,0x00,0x00,0xf0,0x00,0x00,0xf0,0x00,0x00,0xf0};


