#define ane_width 20
#define ane_height 20
static char ane_bits[] = {
0x00,0x00,0xf0,0x00,0x00,0xf0,0x00,0x00,0xf0,0x78,0xc0,0xff,0xfc,
0xff,0xff,0xfc,0xff,0xff,0xfe,0xff,0xff,0xfe,0xff,0xfe,0xfd,0xff,
0xf4,0x99,0x3f,0xf4,0x1d,0x30,0xf0,0x0d,0x10,0xf0,0x0c,0x10,0xf0,
0x0c,0x10,0xf0,0x08,0x10,0xf0,0x10,0x30,0xf0,0x00,0x10,0xf0,0x00,
0x00,0xf0,0x00,0x00,0xf0,0x00,0x00,0xf0};





