#define chat_width 20
#define chat_height 20
static char chat_bits[] = {
0x00,0x00,0xf0,0x04,0x00,0xf0,0x06,0x00,0xf0,0x02,0x00,
0xf0,0x02,0x00,0xf3,0x02,0x80,0xf3,0x04,0x80,0xf7,0x0c,
0xc0,0xf7,0xf8,0xc3,0xf7,0xf0,0xff,0xf7,0xf8,0xff,0xf1,
0xf8,0xff,0xf1,0xf0,0xff,0xf1,0xf8,0xff,0xf0,0xf8,0xe1,
0xf0,0xd8,0xe1,0xf0,0x98,0xc1,0xf1,0x10,0x43,0xf1,0x30,
0xc6,0xf2,0x00,0x00,0xf0};


