#define elephant4_width 20
#define elephant4_height 20
static char elephant4_bits[] = {
0x00,0x00,0xf0,0x00,0x00,0xf0,0xf8,0x3f,0xf0,0xfc,0xff,
0xf0,0xfc,0xff,0xf1,0xfc,0xff,0xf3,0xfc,0xff,0xf3,0xfe,
0x1f,0xf7,0xfe,0x1f,0xfe,0xfe,0x1c,0xf4,0x1d,0x1e,0xf4,
0x0d,0x3c,0xf4,0x0a,0x36,0xf4,0x0a,0x26,0xf4,0x1b,0x66,
0xf0,0x00,0x00,0xf0,0x00,0x00,0xf0,0x00,0x00,0xf0,0x00,
0x00,0xf0,0x00,0x00,0xf0};


