#define ecureuil_width 20
#define ecureuil_height 20
static char ecureuil_bits[] = {
0x00,0x00,0xf0,0x00,0x00,0xf0,0xe0,0x01,0xf0,0xf0,
0x03,0xf0,0xf8,0x47,0xf1,0x98,0xc7,0xf1,0x80,0xc7,
0xf1,0x80,0xf7,0xf3,0x80,0xff,0xf3,0x80,0xff,0xf1,
0x80,0xff,0xf3,0x80,0x7f,0xf0,0x80,0x3f,0xf0,0x00,
0x1f,0xf0,0x00,0x1f,0xf0,0x00,0x30,0xf0,0x00,0x00,
0xf0,0x00,0x00,0xf0,0x00,0x00,0xf0,0x00,0x00,0xf0};


