#define cochon2_width 20
#define cochon2_height 20
static char cochon2_bits[] = {
0x38,0xb0,0xf0,0x24,0x9f,0xf0,0xe4,0x60,0xf0,
0x18,0x80,0xf0,0x08,0x00,0xf1,0xf4,0x78,0xf2,
0xd2,0x68,0xf4,0xd2,0x70,0xf4,0x21,0x00,0xf4,
0x01,0x00,0xf8,0x81,0x1f,0xf8,0x61,0x20,0xf8,
0x21,0x29,0xf4,0x41,0x10,0xf4,0x82,0x0f,0xf0,
0x02,0x40,0xf2,0x04,0x60,0xf2,0x08,0x3e,0xf1,
0x10,0x80,0xf0,0xe0,0x7f,0xf0};


